<?xml version="1.0" standalone="no"?><!DOCTYPE svg PUBLIC "-//W3C//DTD SVG 1.1//EN" "http://www.w3.org/Graphics/SVG/1.1/DTD/svg11.dtd"><svg t="1648379058433" class="icon" viewBox="0 0 1024 1024" version="1.1" xmlns="http://www.w3.org/2000/svg" p-id="9060" xmlns:xlink="http://www.w3.org/1999/xlink" width="81" height="81"><defs><style type="text/css"></style></defs><path d="M51.2 512c0 254.976 205.824 460.8 460.8 460.8s460.8-205.824 460.8-460.8S766.976 51.2 512 51.2 51.2 257.024 51.2 512z" fill="#EEF4FF" p-id="9061"></path><path d="M512 745.472c-5.12 0-9.216-1.024-10.24-2.048-1.024-2.048-120.832-143.36-151.552-210.944-11.264-24.576-18.432-51.2-18.432-76.8 0-97.28 80.896-177.152 179.2-177.152S691.2 358.4 691.2 456.704c0 29.696-5.12 52.224-19.456 76.8C634.88 604.16 523.264 741.376 522.24 742.4c-1.024 1.024-4.096 2.048-10.24 3.072z m0-367.616c-43.008 0-79.872 35.84-79.872 79.872s35.84 79.872 79.872 79.872 79.872-35.84 79.872-79.872c0-46.08-36.864-79.872-79.872-79.872z" fill="#5E95E5" p-id="9062"></path></svg>