<?xml version="1.0" encoding="UTF-8"?>
<svg width="480px" height="480px" viewBox="0 0 480 480" version="1.1" xmlns="http://www.w3.org/2000/svg" xmlns:xlink="http://www.w3.org/1999/xlink">
    <!-- Generator: Sketch 57.1 (83088) - https://sketch.com -->
    <title>插画icon@3x</title>
    <desc>Created with Sketch.</desc>
    <defs>
        <filter x="-10.9%" y="-300.0%" width="121.7%" height="700.0%" filterUnits="objectBoundingBox" id="filter-1">
            <feGaussianBlur stdDeviation="8" in="SourceGraphic"></feGaussianBlur>
        </filter>
        <linearGradient x1="0%" y1="50%" x2="100%" y2="50%" id="linearGradient-2">
            <stop stop-color="#1FACFB" offset="0%"></stop>
            <stop stop-color="#406BFC" offset="100%"></stop>
        </linearGradient>
        <linearGradient x1="50%" y1="0%" x2="50%" y2="130.62165%" id="linearGradient-3">
            <stop stop-color="#FFF1E5" offset="0%"></stop>
            <stop stop-color="#FFDFCC" offset="100%"></stop>
        </linearGradient>
    </defs>
    <g id="插画icon" stroke="none" stroke-width="1" fill="none" fill-rule="evenodd">
        <g id="缺省/没有记录" transform="translate(76.000000, 95.000000)">
            <g>
                <g id="统一背景备份">
                    <rect id="矩形" fill="#EEEEEE" x="47" y="0" width="246" height="24" rx="10"></rect>
                    <rect id="矩形备份" fill="#EEEEEE" x="19" y="49" width="292" height="23" rx="10"></rect>
                    <rect id="矩形备份-2" fill="#EEEEEE" x="21" y="152" width="291" height="23" rx="10"></rect>
                    <rect id="矩形备份-3" fill="#EEEEEE" x="0" y="99" width="329" height="23" rx="10"></rect>
                    <rect id="矩形备份-5" fill="#EEEEEE" x="47" y="201" width="235" height="24" rx="10"></rect>
                    <ellipse id="椭圆形" fill="#3D3D3D" opacity="0.400000006" filter="url(#filter-1)" cx="164.5" cy="286" rx="110.5" ry="4"></ellipse>
                </g>
                <path d="M217,47 C228.045695,47 237,55.954305 237,67 L237,184 C237,195.045695 228.045695,204 217,204 L121,204 C109.954305,204 101,195.045695 101,184 L101,173 L112,173 C119.6275,173 125.830327,166.900248 125.996578,159.312645 L126,159 C126,151.268014 119.731986,145 112,145 L112,145 L101,145 L101,107 L112,107 C119.6275,107 125.830327,100.900248 125.996578,93.312645 L126,93 C126,85.2680135 119.731986,79 112,79 L112,79 L101,79 L101,67 C101,55.954305 109.954305,47 121,47 L217,47 Z" id="形状结合" fill="url(#linearGradient-2)"></path>
                <path d="M111,154 C113.761424,154 116,156.238576 116,159 C116,161.761424 113.761424,164 111,164 L96,164 C93.2385763,164 91,161.761424 91,159 C91,156.238576 93.2385763,154 96,154 L111,154 Z M111,88 C113.761424,88 116,90.2385763 116,93 C116,95.7614237 113.761424,98 111,98 L96,98 C93.2385763,98 91,95.7614237 91,93 C91,90.2385763 93.2385763,88 96,88 L111,88 Z" id="形状结合" fill="#B2DFFF"></path>
                <path d="M178.671147,149.840571 L197.553715,163.55935 C187.952916,169.768247 181.671079,171.796368 178.708204,169.643714 C175.745345,167.49107 175.732993,160.890023 178.671147,149.840571 Z M237,70.473252 L237,109.374547 L201.330757,158.886252 L194.06653,153.608695 L208.173377,134.192288 L203.319275,130.665576 L189.212428,150.081984 L181.967757,144.818252 L237,70.473252 Z" id="形状结合" fill="url(#linearGradient-3)"></path>
                <path d="M152,180 C154.761424,180 157,182.238576 157,185 C157,187.761424 154.761424,190 152,190 C149.238576,190 147,187.761424 147,185 C147,182.238576 149.238576,180 152,180 Z M169,180 C171.761424,180 174,182.238576 174,185 C174,187.761424 171.761424,190 169,190 C166.238576,190 164,187.761424 164,185 C164,182.238576 166.238576,180 169,180 Z M186,180 C188.761424,180 191,182.238576 191,185 C191,187.761424 188.761424,190 186,190 C183.238576,190 181,187.761424 181,185 C181,182.238576 183.238576,180 186,180 Z" id="形状结合" fill="#B2DFFF"></path>
            </g>
        </g>
    </g>
</svg>