<?xml version="1.0" encoding="UTF-8"?>
<svg width="480px" height="480px" viewBox="0 0 480 480" version="1.1" xmlns="http://www.w3.org/2000/svg" xmlns:xlink="http://www.w3.org/1999/xlink">
    <!-- Generator: Sketch 57.1 (83088) - https://sketch.com -->
    <title>插画icon@3x</title>
    <desc>Created with Sketch.</desc>
    <defs>
        <filter x="-10.9%" y="-300.0%" width="121.7%" height="700.0%" filterUnits="objectBoundingBox" id="filter-1">
            <feGaussianBlur stdDeviation="8" in="SourceGraphic"></feGaussianBlur>
        </filter>
        <linearGradient x1="0%" y1="50%" x2="79.5878391%" y2="50%" id="linearGradient-2">
            <stop stop-color="#1FACFB" offset="0%"></stop>
            <stop stop-color="#416AFC" offset="100%"></stop>
        </linearGradient>
        <linearGradient x1="50%" y1="15.8655335%" x2="50%" y2="100%" id="linearGradient-3">
            <stop stop-color="#FFF1E5" offset="0%"></stop>
            <stop stop-color="#FFDECA" offset="100%"></stop>
        </linearGradient>
        <linearGradient x1="0%" y1="50%" x2="100%" y2="50%" id="linearGradient-4">
            <stop stop-color="#FFF2E6" offset="0%"></stop>
            <stop stop-color="#FFDAC4" offset="100%"></stop>
        </linearGradient>
    </defs>
    <g id="插画icon" stroke="none" stroke-width="1" fill="none" fill-rule="evenodd">
        <g id="缺省/没有积分" transform="translate(75.000000, 95.000000)">
            <g id="编组-2">
                <g id="统一背景备份">
                    <rect id="矩形" fill="#EEEEEE" x="47" y="0" width="246" height="24" rx="10"></rect>
                    <rect id="矩形备份" fill="#EEEEEE" x="19" y="49" width="292" height="23" rx="10"></rect>
                    <rect id="矩形备份-2" fill="#EEEEEE" x="21" y="152" width="291" height="23" rx="10"></rect>
                    <rect id="矩形备份-3" fill="#EEEEEE" x="0" y="99" width="329" height="23" rx="10"></rect>
                    <rect id="矩形备份-5" fill="#EEEEEE" x="47" y="201" width="235" height="24" rx="10"></rect>
                    <ellipse id="椭圆形" fill="#3D3D3D" opacity="0.400000006" filter="url(#filter-1)" cx="164.5" cy="286" rx="110.5" ry="4"></ellipse>
                </g>
                <path d="M130.246377,170.293578 L130.246377,75.2935783 L122.188406,75.2935783 L122.188406,170.293578 L106,170.293578 C100.477153,170.293578 96,165.816426 96,160.293578 L96,135.068859 C102.119155,135.068859 107.07971,129.811978 107.07971,123.327286 C107.07971,116.842594 102.119155,111.585713 96,111.585713 L96,82 C96,76.4771525 100.477153,72 106,72 L233.70665,72 L233.715731,72.6515056 C236.495769,73.5784669 238.5,76.201966 238.5,79.2935783 C238.5,82.3202837 236.579041,84.8983251 233.889791,85.8750356 L233.890527,85.9776216 C231.642872,86.5071885 229.963768,88.6115575 229.963768,91.1269116 C229.963768,93.6927186 231.710906,95.830888 234.026454,96.3061576 L234.029402,96.5090157 C236.322853,97.1715891 238,99.2867244 238,101.793578 C238,104.497054 236.049446,106.744953 233.478888,107.206725 C231.440396,107.881798 229.963768,109.879197 229.963768,112.238023 C229.963768,114.905784 231.852512,117.111247 234.305102,117.46597 L234.307733,117.597562 C236.457281,118.34532 238,120.389288 238,122.793578 C238,125.146885 236.522015,127.154989 234.443651,127.940286 L234.445049,128.103033 C231.924732,128.392536 229.963768,130.630848 229.963768,133.349134 C229.963768,135.710416 231.443472,137.709518 233.484156,138.383654 C233.726931,138.42527 233.963483,138.484872 234.193411,138.559204 C234.321862,138.581255 234.451929,138.597832 234.583425,138.609115 L234.584642,138.702391 C236.588539,139.523771 238,141.493843 238,143.793578 C238,146.042427 236.650312,147.976039 234.716787,148.828562 L234.721975,149.190373 C232.069851,149.341594 229.963768,151.643172 229.963768,154.460245 C229.963768,156.644162 231.229529,158.518266 233.034191,159.320836 C233.596815,159.373474 234.13413,159.512299 234.633824,159.72283 C234.754293,159.733374 234.876629,159.738023 235,159.738023 L234.861,159.735 L234.862615,159.825463 C236.717837,160.709301 238,162.601707 238,164.793578 C238,166.934004 236.777319,168.788857 234.992291,169.697802 L235,170.293578 L232.5,170.293578 L232.5,170.293578 L130.246377,170.293578 Z" id="形状结合备份-3" fill="#FFFFFF" opacity="0.5"></path>
                <path d="M116,173 L116,83 L220,83 L220,83 C222.761424,83 225,85.2385763 225,88 C225,90.6887547 222.877693,92.8818181 220.21689,92.9953805 L220,93 C217.238576,93 215,95.2385763 215,98 C215,100.688755 217.122307,102.881818 219.78311,102.99538 L220,103 L220,103 C222.761424,103 225,105.238576 225,108 C225,110.688755 222.877693,112.881818 220.21689,112.99538 L220,113 C217.238576,113 215,115.238576 215,118 C215,120.688755 217.122307,122.881818 219.78311,122.99538 L220,123 L220,123 C222.761424,123 225,125.238576 225,128 C225,130.688755 222.877693,132.881818 220.21689,132.99538 L220,133 C217.238576,133 215,135.238576 215,138 C215,140.688755 217.122307,142.881818 219.78311,142.99538 L220,143 L220,143 C222.761424,143 225,145.238576 225,148 C225,150.688755 222.877693,152.881818 220.21689,152.99538 L220,153 C217.238576,153 215,155.238576 215,158 C215,160.688755 217.122307,162.881818 219.78311,162.99538 L220,163 L220,163 C222.761424,163 225,165.238576 225,168 C225,170.761424 222.761424,173 220,173 L116,173 Z M108,83 L108,173 L92,173 C86.4771525,173 82,168.522847 82,163 L82,139.629213 C88.0751322,139.629213 93,134.64901 93,128.505618 C93,122.362226 88.0751322,117.382022 82,117.382022 L82,93 C82,87.4771525 86.4771525,83 92,83 L108,83 Z" id="形状结合" fill="url(#linearGradient-2)"></path>
                <path d="M138.065388,64.1512242 L242.819828,64.7888748 L242.819958,65.2742778 C244.602704,65.4361546 245.999388,66.9348675 245.999388,68.7597936 C245.999388,70.6927902 244.432385,72.2597936 242.499388,72.2597936 C242.286019,72.2597936 242.077109,72.2407008 241.874274,72.2041304 C239.544801,72.6655544 237.783596,74.8105894 237.783596,77.3867052 C237.783596,79.5028926 238.972064,81.328185 240.687691,82.1695565 L240.884,82.26 L241.041035,82.2641608 C243.976047,82.3802545 246.319828,84.7963145 246.319828,87.7597936 C246.319828,90.0918237 244.868447,92.0848657 242.819702,92.8849024 L242.819828,93.2200386 C240.038393,93.2200386 237.783596,95.5829802 237.783596,98.4978164 C237.783596,100.599504 238.955834,102.41427 240.652501,103.263235 L240.819828,103.259794 C243.857394,103.259794 246.319828,105.722227 246.319828,108.759794 C246.319828,111.091824 244.868447,113.084866 242.819702,113.884902 L242.819828,114.33115 C240.038393,114.33115 237.783596,116.694091 237.783596,119.608927 C237.783596,121.63025 238.867898,123.386174 240.460204,124.272758 C240.579193,124.263686 240.699056,124.259794 240.819828,124.259794 C243.857394,124.259794 246.319828,126.722227 246.319828,129.759794 C246.319828,132.091824 244.868447,134.084866 242.819702,134.884902 L242.819828,135.442261 C240.038393,135.442261 237.783596,137.805202 237.783596,140.720039 C237.783596,142.669669 238.792346,144.372393 240.292719,145.286279 C240.465774,145.268251 240.641813,145.259794 240.819828,145.259794 C243.857394,145.259794 246.319828,147.722227 246.319828,150.759794 C246.319828,153.091824 244.868447,155.084866 242.819702,155.884902 L242.819828,156.553372 L226.594433,156.553511 C227.44515,155.182233 228.887212,154.250931 230.541803,154.156589 L230.541803,154.156589 L230.536614,153.794778 C232.470139,152.942254 233.819828,151.008642 233.819828,148.759794 C233.819828,146.460058 232.408366,144.489986 230.40447,143.668606 L230.40447,143.668606 L230.403253,143.57533 C230.271756,143.564047 230.14169,143.54747 230.013238,143.525419 C229.78331,143.451088 229.546758,143.391485 229.303984,143.349869 C227.2633,142.675733 225.783596,140.676631 225.783596,138.315349 C225.783596,135.597063 227.744559,133.358752 230.264877,133.069249 L230.264877,133.069249 L230.263478,132.906501 C232.341842,132.121204 233.819828,130.1131 233.819828,127.759794 C233.819828,125.355504 232.277109,123.311535 230.127561,122.563777 L230.127561,122.563777 L230.124929,122.432185 C227.67234,122.077462 225.783596,119.871999 225.783596,117.204238 C225.783596,114.845413 227.260223,112.848013 229.298715,112.172941 C231.869273,111.711169 233.819828,109.463269 233.819828,106.759794 C233.819828,104.25294 232.14268,102.137804 229.849229,101.475231 L229.849229,101.475231 L229.846282,101.272373 C227.530734,100.797103 225.783596,98.6589338 225.783596,96.0931269 C225.783596,93.5777728 227.4627,91.4734038 229.710354,90.9438369 L229.710354,90.9438369 L229.709618,90.8412509 C232.398869,89.8645404 234.319828,87.286499 234.319828,84.2597936 C234.319828,81.1681813 232.315596,78.5446822 229.535559,77.6177209 L229.535559,77.6177209 L229.526478,76.9662153 L138.065,76.966 L138.065388,64.1512242 Z M126.066204,80.2597936 L126.066,156.553 L118.008,156.553 L118.008233,80.2597936 L126.066204,80.2597936 Z M240.819828,82.2597936 L240.88795,82.2622319 L240.88795,82.2622319 L240.884,82.26 L240.819828,82.2597936 Z M113.060805,64 L130.007388,64.1022242 L130.007,76.966 L103.028,76.966 L103.000504,74.0991774 C102.945628,68.5766025 107.378073,64.0551851 112.900648,64.0003089 L113.060805,64 Z M117.999388,80.2597936 L125.999388,80.2597936 L125.999388,156.259794 L117.999388,156.259794 L117.999388,80.2597936 Z" id="形状结合" fill="#B2DFFF"></path>
                <path d="M171.035898,102 L177.964102,106 L171.309,117.526 L180,117.526279 L180,125.526279 L166.5,125.526 L166.5,131.526 L180,131.526279 L180,139.526279 L166.5,139.526 L166.5,153.026279 L158.5,153.026279 L158.5,139.526 L145,139.526279 L145,131.526279 L158.5,131.526 L158.5,125.526 L145,125.526279 L145,117.526279 L153.69,117.526 L147.035898,106 L153.964102,102 L162.499,116.784 L171.035898,102 Z" id="形状结合" fill="url(#linearGradient-3)"></path>
                <circle id="椭圆形" fill="url(#linearGradient-4)" cx="221" cy="173" r="26"></circle>
                <path d="M209,170 C210.656854,170 212,171.343146 212,173 C212,174.656854 210.656854,176 209,176 C207.343146,176 206,174.656854 206,173 C206,171.343146 207.343146,170 209,170 Z M221,170 C222.656854,170 224,171.343146 224,173 C224,174.656854 222.656854,176 221,176 C219.343146,176 218,174.656854 218,173 C218,171.343146 219.343146,170 221,170 Z M233,170 C234.656854,170 236,171.343146 236,173 C236,174.656854 234.656854,176 233,176 C231.343146,176 230,174.656854 230,173 C230,171.343146 231.343146,170 233,170 Z" id="形状结合" fill="#EBB799"></path>
            </g>
        </g>
    </g>
</svg>